<svg width="10" height="13" viewBox="0 0 10 13" fill="none" xmlns="http://www.w3.org/2000/svg">
<g id="&#8;s">
<path id="Vector" fill-rule="evenodd" clip-rule="evenodd" d="M5.00875 1.87695C5.25168 1.87695 5.48466 1.96543 5.65644 2.12293C5.82822 2.28043 5.92472 2.49404 5.92472 2.71677V11.7711C5.92472 11.9938 5.82822 12.2074 5.65644 12.3649C5.48466 12.5224 5.25168 12.6109 5.00875 12.6109C4.76582 12.6109 4.53284 12.5224 4.36106 12.3649C4.18928 12.2074 4.09277 11.9938 4.09277 11.7711V2.71789C4.09277 2.49516 4.18928 2.28155 4.36106 2.12405C4.53284 1.96655 4.76582 1.87695 5.00875 1.87695Z" fill="#181818"/>
<path id="Vector_2" fill-rule="evenodd" clip-rule="evenodd" d="M4.36841 0.627644C4.53952 0.474439 4.7692 0.388672 5.00837 0.388672C5.24754 0.388672 5.47722 0.474439 5.64833 0.627644L9.73236 4.28476C9.90253 4.44109 9.99869 4.6526 9.99999 4.87348C10.0013 5.09435 9.90763 5.3068 9.73931 5.46481C9.57098 5.62282 9.34154 5.71367 9.10067 5.71769C8.85981 5.7217 8.62691 5.63855 8.45243 5.48625L5.00837 2.40245L1.5643 5.48625C1.47864 5.56495 1.37678 5.62727 1.26463 5.66959C1.15249 5.71192 1.0323 5.7334 0.911028 5.7328C0.789758 5.7322 0.669825 5.70953 0.558187 5.6661C0.446549 5.62267 0.345429 5.55934 0.260694 5.4798C0.175958 5.40026 0.109294 5.30608 0.0645685 5.20273C0.0198432 5.09937 -0.00205241 4.98891 0.000151251 4.87774C0.00235492 4.76657 0.0286143 4.65691 0.0774061 4.55511C0.126198 4.45332 0.19655 4.36143 0.284382 4.28476L4.36841 0.627644Z" fill="#181818"/>
</g>
</svg>
