<svg width="30" height="30" viewBox="0 0 30 30" fill="none" xmlns="http://www.w3.org/2000/svg">
<g id="Locked">
<path id="Loop" d="M15 1.875C11.8934 1.875 9.375 4.3934 9.375 7.5V10.3125C9.375 13.4191 11.8934 15.9375 15 15.9375C18.1066 15.9375 20.625 13.4191 20.625 10.3125V7.5C20.625 4.3934 18.1066 1.875 15 1.875ZM15 4.21875C16.8122 4.21875 18.2812 5.68782 18.2812 7.5V10.3125C18.2812 12.1247 16.8122 13.5938 15 13.5938C13.1878 13.5938 11.7188 12.1247 11.7188 10.3125V7.5C11.7188 5.68782 13.1878 4.21875 15 4.21875Z" fill="#D3D3D3"/>
<path id="Base" d="M4.6875 13.125C4.6875 11.5717 5.9467 10.3125 7.5 10.3125H22.5C24.0533 10.3125 25.3125 11.5717 25.3125 13.125V25.3125C25.3125 26.8658 24.0533 28.125 22.5 28.125H7.5C5.9467 28.125 4.6875 26.8658 4.6875 25.3125V13.125Z" fill="#2D87F1"/>
<path id="Union" d="M16.4062 19.2189C16.9755 18.7913 17.3438 18.1105 17.3438 17.3438C17.3438 16.0493 16.2944 15 15 15C13.7056 15 12.6562 16.0493 12.6562 17.3438C12.6562 18.1105 13.0245 18.7913 13.5938 19.2189V22.5C13.5938 23.2767 14.2233 23.9062 15 23.9062C15.7767 23.9062 16.4062 23.2767 16.4062 22.5V19.2189Z" fill="#1D1F23"/>
</g>
</svg>
