<svg width="68" height="84" viewBox="0 0 68 84" fill="none" xmlns="http://www.w3.org/2000/svg">
<g id="Frame 1437256373">
<g id="Vector">
<path d="M-0.00195312 42.409V33.8153H15.9789C6.11245 33.8153 -0.00195312 42.409 -0.00195312 42.409Z" fill="url(#paint0_linear_991_3558)"/>
<path d="M-0.00195312 19.6595C-0.00195312 8.90973 8.71246 0.195312 19.4622 0.195312H50.428C59.7119 0.195312 67.238 7.7214 67.238 17.0053C67.238 26.2892 59.7119 33.8153 50.428 33.8153H-0.00195312V19.6595Z" fill="url(#paint1_linear_991_3558)"/>
</g>
<g id="Vector_2">
<path d="M-0.00195312 81.1104V72.5167H15.9789C6.11245 72.5167 -0.00195312 81.1104 -0.00195312 81.1104Z" fill="url(#paint2_linear_991_3558)"/>
<path d="M-0.00195312 58.3609C-0.00195312 47.6111 8.71246 38.8967 19.4622 38.8967H37.157C46.4409 38.8967 53.9669 46.4228 53.9669 55.7067C53.9669 64.9906 46.4409 72.5167 37.157 72.5167H-0.00195312V58.3609Z" fill="url(#paint3_linear_991_3558)"/>
</g>
</g>
<defs>
<linearGradient id="paint0_linear_991_3558" x1="33.618" y1="0.195312" x2="33.618" y2="42.409" gradientUnits="userSpaceOnUse">
<stop stop-color="#2D87F1"/>
<stop offset="1" stop-color="#2D87F1" stop-opacity="0.8"/>
</linearGradient>
<linearGradient id="paint1_linear_991_3558" x1="33.618" y1="0.195312" x2="33.618" y2="42.409" gradientUnits="userSpaceOnUse">
<stop stop-color="#2D87F1"/>
<stop offset="1" stop-color="#2D87F1" stop-opacity="0.8"/>
</linearGradient>
<linearGradient id="paint2_linear_991_3558" x1="26.9825" y1="38.8967" x2="26.9825" y2="81.1104" gradientUnits="userSpaceOnUse">
<stop stop-color="#91C3FF"/>
<stop offset="1" stop-color="#91C3FF" stop-opacity="0.7"/>
</linearGradient>
<linearGradient id="paint3_linear_991_3558" x1="26.9825" y1="38.8967" x2="26.9825" y2="81.1104" gradientUnits="userSpaceOnUse">
<stop stop-color="#91C3FF"/>
<stop offset="1" stop-color="#91C3FF" stop-opacity="0.7"/>
</linearGradient>
</defs>
</svg>
