<svg width="110" height="78" viewBox="0 0 110 78" fill="none" xmlns="http://www.w3.org/2000/svg">
<g id="Frame 1437256368">
<path id="Vector" d="M16 0H0V77H16V0Z" fill="white"/>
<path id="Vector_2" d="M106.006 41.8798C108.346 37.7745 109.516 32.9962 109.516 27.5449C109.516 22.1417 108.366 17.3538 106.064 13.1812C103.753 9.00859 100.388 5.77819 95.9502 3.46114C91.512 1.15371 86.2325 0 80.1119 0H21.6538V54.9841H79.7154C85.9135 54.9841 91.2509 53.8304 95.7471 51.5134C100.243 49.2059 103.666 45.9948 106.006 41.8798Z" fill="#1D1F23"/>
<path id="Vector_3" d="M109.516 27.5449C109.516 32.9962 108.346 37.7745 106.006 41.8798C103.666 45.9948 100.243 49.2059 95.7471 51.5134C91.2509 53.8304 85.9135 54.9841 79.7154 54.9841H21.6538V41.3511H77.0564C80.3439 41.3511 83.1094 40.7742 85.3526 39.6301C87.5959 38.486 89.2687 36.8804 90.371 34.8133C91.4636 32.7463 92.0148 30.3235 92.0148 27.5449C92.0148 24.7664 91.4636 22.3532 90.371 20.3054C89.2687 18.2575 87.5959 16.6808 85.3236 15.5752C83.061 14.4695 80.2859 13.9119 76.9984 13.9119H21.6538V0H80.1119C86.2325 0 91.512 1.15371 95.9502 3.46114C100.388 5.77819 103.753 9.00859 106.064 13.1812C108.366 17.3538 109.516 22.1417 109.516 27.5449Z" fill="white"/>
<path id="Vector_4" d="M66.7284 68.443C66.7284 64.1282 63.2305 60.6304 58.9157 60.6304C54.6009 60.6304 51.103 64.1282 51.103 68.443V69.2659C51.103 73.5807 54.6009 77.0786 58.9157 77.0786C63.2305 77.0786 66.7284 73.5807 66.7284 69.2659V68.443Z" fill="#2D87F1"/>
</g>
</svg>
