<svg width="26" height="25" viewBox="0 0 26 25" fill="none" xmlns="http://www.w3.org/2000/svg">
<g id="iconamoon:profile-fill">
<path id="Vector" fill-rule="evenodd" clip-rule="evenodd" d="M8.30612 6.61326C8.30612 5.36851 8.80059 4.17474 9.68076 3.29457C10.5609 2.4144 11.7547 1.91992 12.9995 1.91992C14.2442 1.91992 15.438 2.4144 16.3181 3.29457C17.1983 4.17474 17.6928 5.36851 17.6928 6.61326C17.6928 7.858 17.1983 9.05177 16.3181 9.93194C15.438 10.8121 14.2442 11.3066 12.9995 11.3066C11.7547 11.3066 10.5609 10.8121 9.68076 9.93194C8.80059 9.05177 8.30612 7.858 8.30612 6.61326ZM8.30612 13.6533C6.75018 13.6533 5.25797 14.2713 4.15776 15.3716C3.05755 16.4718 2.43945 17.964 2.43945 19.5199C2.43945 20.4535 2.81031 21.3488 3.47044 22.0089C4.13057 22.6691 5.02589 23.0399 5.95945 23.0399H20.0395C20.973 23.0399 21.8683 22.6691 22.5285 22.0089C23.1886 21.3488 23.5595 20.4535 23.5595 19.5199C23.5595 17.964 22.9414 16.4718 21.8411 15.3716C20.7409 14.2713 19.2487 13.6533 17.6928 13.6533H8.30612Z" fill="#2D87F1"/>
</g>
</svg>
