<svg width="24" height="24" viewBox="0 0 24 24" fill="none" xmlns="http://www.w3.org/2000/svg">
<g id="clarity:talk-bubbles-solid" clip-path="url(#clip0_476_6964)">
<path id="Vector" d="M4.33713 12.3103V6.71973H2.2086C1.64408 6.71973 1.10268 6.9406 0.703509 7.33377C0.304333 7.72694 0.0800781 8.26018 0.0800781 8.81621V21.3951C0.0811341 21.5249 0.118865 21.6518 0.189042 21.7616C0.259219 21.8715 0.359069 21.9599 0.477403 22.017C0.591406 22.0681 0.7171 22.0885 0.841717 22.0763C0.966334 22.064 1.08543 22.0194 1.18691 21.9472L4.84088 19.2986H14.3767C14.6456 19.3064 14.9133 19.2598 15.1631 19.1616C15.413 19.0634 15.6397 18.9157 15.8293 18.7277C16.0189 18.5397 16.1672 18.3153 16.2652 18.0685C16.3631 17.8217 16.4086 17.5578 16.3988 17.293V16.5033H8.59418C7.46514 16.5033 6.38234 16.0615 5.58399 15.2752C4.78564 14.4889 4.33713 13.4224 4.33713 12.3103Z" fill="#474B50"/>
<path id="Vector_2" d="M21.0541 1.91992H8.93877C8.37174 1.91992 7.82794 2.14154 7.42698 2.53604C7.02603 2.93053 6.80078 3.46557 6.80078 4.02346V12.4376C6.80078 12.9955 7.02603 13.5306 7.42698 13.9251C7.82794 14.3196 8.37174 14.5412 8.93877 14.5412H18.5954L22.0019 17.1426C22.1032 17.2162 22.2225 17.2622 22.3477 17.2757C22.4728 17.2893 22.5994 17.2699 22.7146 17.2197C22.8358 17.1629 22.9383 17.0735 23.0102 16.9618C23.0821 16.8502 23.1204 16.7208 23.1208 16.5886V4.02346C23.1211 3.47751 22.9056 2.95282 22.52 2.56029C22.1343 2.16775 21.6086 1.93812 21.0541 1.91992Z" fill="#474B50"/>
</g>
<defs>
<clipPath id="clip0_476_6964">
<rect width="23.04" height="23.04" fill="white" transform="translate(0.0800781)"/>
</clipPath>
</defs>
</svg>
