<svg width="30" height="32" viewBox="0 0 30 32" fill="none" xmlns="http://www.w3.org/2000/svg">
<g id="Outbox tray">
<path id="Shape" d="M12.4277 24.1669L12.4277 8.21115C12.4277 6.44052 10.9977 5 9.21773 5L4.26773 5C2.49773 5 1.05773 6.44051 1.05773 8.21115L1.05773 24.1669C1.05773 25.9375 2.49773 27.378 4.26773 27.378L9.21773 27.378C10.9977 27.368 12.4277 25.9375 12.4277 24.1669Z" fill="#999EAC"/>
<path id="Shape_2" d="M21.8672 8.21L21.8672 24.15C21.8672 25.93 20.4272 27.36 18.6572 27.38L8.32719 27.38C6.55719 27.38 5.11719 25.94 5.11719 24.17L5.11719 20.82L5.11719 11.56L5.11719 8.21C5.11719 6.44 6.55719 5 8.32719 5L18.6572 5C20.4272 5 21.8672 6.44 21.8672 8.21Z" fill="#D8D9DB"/>
<path id="Shape_3" d="M19.3184 10.0403L19.3184 22.3203C19.3184 23.6903 18.2084 24.7903 16.8484 24.7903L10.0384 24.7903C8.67836 24.7903 7.56836 23.6803 7.56836 22.3203L7.56836 19.2403L7.56836 13.1203L7.56836 10.0403C7.56836 8.68031 8.67836 7.57031 10.0384 7.57031L16.8484 7.57031C18.2084 7.57031 19.3184 8.68031 19.3184 10.0403Z" fill="#999EAC"/>
<path id="Shape_4" d="M15.7775 18.9402L22.8775 18.9402C23.0375 18.9402 23.1575 19.0702 23.1575 19.2202L23.1575 20.2002C23.1575 20.8202 23.8975 21.1502 24.3575 20.7302L28.7675 16.7202C29.0775 16.4402 29.0775 15.9502 28.7675 15.6602L24.3575 11.6402C23.8975 11.2202 23.1575 11.5502 23.1575 12.1702L23.1575 13.1502C23.1575 13.3102 23.0275 13.4302 22.8775 13.4302L15.7775 13.4302C15.5175 13.4302 15.3075 13.6402 15.3075 13.9002L15.3075 18.4802C15.3075 18.7302 15.5175 18.9402 15.7775 18.9402Z" fill="#2D87F1"/>
</g>
</svg>
