<svg width="26" height="25" viewBox="0 0 26 25" fill="none" xmlns="http://www.w3.org/2000/svg">
<g id="fluent:home-24-filled">
<path id="Vector" d="M14.8744 1.65195C14.4055 1.25677 13.812 1.04004 13.1988 1.04004C12.5856 1.04004 11.9922 1.25677 11.5233 1.65195L3.72327 8.23284C3.43376 8.47684 3.20103 8.78113 3.04135 9.12443C2.88168 9.46773 2.79891 9.84177 2.79883 10.2204V20.9728C2.79883 22.0891 3.70478 22.9951 4.82105 22.9951H9.44327C9.9796 22.9951 10.494 22.782 10.8732 22.4028C11.2524 22.0235 11.4655 21.5092 11.4655 20.9728V16.3471C11.4655 15.5614 12.0918 14.9235 12.8718 14.9027H13.5259C13.9023 14.9126 14.26 15.0692 14.5227 15.339C14.7854 15.6088 14.9323 15.9706 14.9322 16.3471V20.9728C14.9322 22.0891 15.8381 22.9951 16.9544 22.9951H21.5766C22.1129 22.9951 22.6273 22.782 23.0065 22.4028C23.3858 22.0235 23.5988 21.5092 23.5988 20.9728V10.2192C23.5988 9.84061 23.516 9.46658 23.3563 9.12327C23.1966 8.77997 22.9639 8.47568 22.6744 8.23168L14.8744 1.65195Z" fill="#474B50"/>
</g>
</svg>
